<?xml version="1.0" standalone="no"?>
<!DOCTYPE svg PUBLIC "-//W3C//DTD SVG 20010904//EN"
 "http://www.w3.org/TR/2001/REC-SVG-20010904/DTD/svg10.dtd">
<svg version="1.0" xmlns="http://www.w3.org/2000/svg"
 width="90.000000pt" height="90.000000pt" viewBox="0 0 90.000000 90.000000"
 preserveAspectRatio="xMidYMid meet">

<g transform="translate(0.000000,90.000000) scale(0.100000,-0.100000)"
fill="#c24c4c" stroke="none">
<path d="M200 760 c-19 -19 -20 -33 -20 -310 0 -277 1 -291 20 -310 15 -15 33
-20 70 -20 37 0 55 5 70 20 19 19 20 33 20 310 0 277 -1 291 -20 310 -15 15
-33 20 -70 20 -37 0 -55 -5 -70 -20z"/>
<path d="M560 760 c-19 -19 -20 -33 -20 -310 0 -277 1 -291 20 -310 15 -15 33
-20 70 -20 37 0 55 5 70 20 19 19 20 33 20 310 0 277 -1 291 -20 310 -15 15
-33 20 -70 20 -37 0 -55 -5 -70 -20z"/>
</g>
</svg>
