<?xml version="1.0" standalone="no"?>
<!DOCTYPE svg PUBLIC "-//W3C//DTD SVG 20010904//EN"
 "http://www.w3.org/TR/2001/REC-SVG-20010904/DTD/svg10.dtd">
<svg version="1.0" xmlns="http://www.w3.org/2000/svg"
 width="96.000000pt" height="96.000000pt" viewBox="0 0 96.000000 96.000000"
 preserveAspectRatio="xMidYMid meet">

<g transform="translate(0.000000,96.000000) scale(0.100000,-0.100000)"
fill="#c24c4c" stroke="none">
<path d="M749 878 c-91 -89 -161 -135 -255 -170 -51 -19 -87 -23 -256 -27
-171 -5 -200 -8 -215 -24 -15 -15 -18 -36 -18 -137 0 -101 3 -122 18 -137 15
-16 44 -19 215 -24 169 -4 205 -8 256 -27 94 -35 164 -81 255 -169 46 -46 88
-83 92 -83 4 0 15 7 23 16 13 13 16 44 16 179 l0 164 27 13 c61 29 63 102 3
136 l-30 17 0 162 c0 133 -3 164 -16 177 -8 9 -19 16 -23 16 -4 0 -46 -37 -92
-82z m51 -359 l0 -302 -45 42 c-96 89 -267 171 -357 171 l-38 0 0 90 0 90 38
0 c90 0 288 97 366 179 17 17 31 31 33 31 2 0 3 -136 3 -301z"/>
<path d="M80 303 c0 -10 10 -38 21 -63 32 -68 59 -150 59 -177 0 -41 33 -63
96 -63 72 0 94 12 94 51 0 22 -11 41 -40 70 -47 47 -77 102 -86 158 l-7 41
-68 0 c-59 0 -69 -3 -69 -17z"/>
</g>
</svg>
