<?xml version="1.0" standalone="no"?>
<!DOCTYPE svg PUBLIC "-//W3C//DTD SVG 20010904//EN"
 "http://www.w3.org/TR/2001/REC-SVG-20010904/DTD/svg10.dtd">
<svg version="1.0" xmlns="http://www.w3.org/2000/svg"
 width="96.000000pt" height="96.000000pt" viewBox="0 0 96.000000 96.000000"
 preserveAspectRatio="xMidYMid meet">

<g transform="translate(0.000000,96.000000) scale(0.100000,-0.100000)"
fill="#7a0000" stroke="none">
<path d="M223 950 c-66 -14 -110 -39 -152 -86 -60 -69 -66 -103 -66 -394 0
-245 1 -257 23 -305 30 -65 73 -108 136 -137 49 -22 60 -23 316 -23 256 0 267
1 316 23 63 29 106 72 136 137 22 48 23 60 23 305 0 307 -5 331 -79 405 -28
28 -69 57 -91 64 -47 17 -495 25 -562 11z m522 -91 c50 -14 100 -64 114 -114
14 -53 14 -477 0 -530 -14 -50 -64 -100 -114 -114 -51 -14 -477 -14 -527 -1
-53 15 -94 53 -115 108 -15 40 -18 78 -18 267 0 245 9 297 57 346 16 16 44 33
61 38 46 13 493 13 542 0z"/>
<path d="M697 772 c-22 -24 -21 -55 1 -75 36 -33 92 -8 92 41 0 47 -61 69 -93
34z"/>
<path d="M402 711 c-177 -61 -223 -288 -85 -412 134 -121 348 -59 398 116 37
127 -38 261 -166 299 -66 20 -82 20 -147 -3z m141 -85 c103 -43 128 -177 48
-257 -64 -65 -153 -65 -220 -1 -128 121 9 326 172 258z"/>
</g>
</svg>
