<?xml version="1.0" standalone="no"?>
<!DOCTYPE svg PUBLIC "-//W3C//DTD SVG 20010904//EN"
 "http://www.w3.org/TR/2001/REC-SVG-20010904/DTD/svg10.dtd">
<svg version="1.0" xmlns="http://www.w3.org/2000/svg"
 width="96.000000pt" height="96.000000pt" viewBox="0 0 96.000000 96.000000"
 preserveAspectRatio="xMidYMid meet">

<g transform="translate(0.000000,96.000000) scale(0.100000,-0.100000)"
fill="#c24c4c" stroke="none">
<path d="M29 851 l-29 -29 0 -281 0 -280 24 -28 24 -28 197 -3 c195 -3 196 -3
193 -25 -3 -19 -12 -23 -68 -30 -96 -11 -165 -31 -165 -48 0 -17 7 -16 107 5
99 20 237 20 336 0 100 -21 107 -22 107 -5 0 17 -69 37 -165 48 -56 7 -65 11
-68 30 -3 22 -2 22 192 25 188 3 196 4 218 26 23 22 23 24 23 313 l0 291 -28
24 -28 24 -420 0 -421 0 -29 -29z m851 -311 l0 -260 -400 0 -400 0 0 260 0
260 400 0 400 0 0 -260z"/>
</g>
</svg>
