<?xml version="1.0" standalone="no"?>
<!DOCTYPE svg PUBLIC "-//W3C//DTD SVG 20010904//EN"
 "http://www.w3.org/TR/2001/REC-SVG-20010904/DTD/svg10.dtd">
<svg version="1.0" xmlns="http://www.w3.org/2000/svg"
 width="96.000000pt" height="96.000000pt" viewBox="0 0 96.000000 96.000000"
 preserveAspectRatio="xMidYMid meet">

<g transform="translate(0.000000,96.000000) scale(0.100000,-0.100000)"
fill="#000000" stroke="none">
<path d="M305 700 l-100 -100 -58 0 c-48 0 -62 -4 -82 -25 -22 -21 -25 -33
-25 -95 0 -62 3 -74 25 -95 20 -21 34 -25 82 -25 l58 0 101 -101 c72 -72 107
-100 118 -96 15 6 16 40 14 319 -3 269 -5 313 -18 316 -8 1 -60 -43 -115 -98z"/>
<path d="M612 708 c-19 -19 -14 -44 13 -76 71 -85 71 -219 0 -304 -28 -33 -32
-60 -10 -78 23 -19 51 -3 85 48 42 64 64 143 57 209 -6 62 -43 146 -80 186
-28 29 -46 34 -65 15z"/>
<path d="M497 593 c-12 -11 -7 -47 8 -67 19 -26 19 -66 -1 -94 -23 -33 -15
-66 17 -70 66 -8 101 135 51 206 -22 30 -58 42 -75 25z"/>
</g>
</svg>
