<?xml version="1.0" standalone="no"?>
<!DOCTYPE svg PUBLIC "-//W3C//DTD SVG 20010904//EN"
 "http://www.w3.org/TR/2001/REC-SVG-20010904/DTD/svg10.dtd">
<svg version="1.0" xmlns="http://www.w3.org/2000/svg"
 width="100.000000pt" height="100.000000pt" viewBox="0 0 100.000000 100.000000"
 preserveAspectRatio="xMidYMid meet">

<g transform="translate(0.000000,100.000000) scale(0.100000,-0.100000)"
fill="#c24c4c" stroke="none">
<path d="M386 944 c-158 -38 -293 -175 -331 -335 -25 -108 -15 -212 29 -300
15 -31 15 -37 -15 -142 -20 -70 -27 -113 -21 -119 6 -6 49 0 120 17 l111 27
58 -22 c80 -30 181 -36 267 -16 234 55 387 284 348 519 -45 268 -300 435 -566
371z m264 -53 c111 -43 197 -128 242 -241 31 -78 31 -222 0 -300 -45 -112
-130 -197 -242 -242 -82 -33 -223 -32 -305 3 l-61 25 -93 -23 c-52 -13 -95
-22 -97 -21 -1 2 8 43 22 92 l25 88 -26 65 c-96 239 30 499 275 568 72 20 188
14 260 -14z"/>
<path d="M294 725 c-28 -19 -54 -75 -54 -117 1 -111 160 -281 309 -329 86 -28
131 -21 178 26 28 28 34 41 31 70 -3 33 -7 38 -71 67 l-68 31 -33 -32 c-30
-30 -36 -32 -57 -20 -41 21 -87 59 -104 86 -16 24 -16 27 1 58 17 32 17 35 0
82 -29 77 -42 93 -79 93 -18 0 -42 -7 -53 -15z m85 -76 c21 -51 21 -51 1 -76
-11 -14 -20 -31 -20 -38 0 -26 74 -107 123 -135 66 -38 91 -38 118 -1 l22 30
48 -25 c53 -26 60 -43 29 -74 -63 -63 -206 -15 -321 107 -96 104 -122 190 -73
244 29 32 50 23 73 -32z"/>
</g>
</svg>
