<?xml version="1.0" standalone="no"?>
<!DOCTYPE svg PUBLIC "-//W3C//DTD SVG 20010904//EN"
 "http://www.w3.org/TR/2001/REC-SVG-20010904/DTD/svg10.dtd">
<svg version="1.0" xmlns="http://www.w3.org/2000/svg"
 width="64.000000pt" height="64.000000pt" viewBox="0 0 64.000000 64.000000"
 preserveAspectRatio="xMidYMid meet">

<g transform="translate(0.000000,64.000000) scale(0.100000,-0.100000)"
fill="#7a0000" stroke="none">
<path d="M302 514 c-29 -20 -52 -66 -52 -103 0 -26 -4 -30 -32 -33 -33 -3 -33
-3 -33 -58 0 -55 0 -55 33 -58 l32 -3 0 -74 c0 -70 1 -75 24 -81 13 -3 38 -4
57 -2 l34 3 3 77 3 77 32 3 c28 3 34 8 46 46 18 58 10 72 -39 72 -34 0 -41 3
-38 18 2 11 15 19 38 22 34 5 35 6 38 58 l3 52 -63 0 c-41 0 -71 -5 -86 -16z"/>
</g>
</svg>
