<?xml version="1.0" standalone="no"?>
<!DOCTYPE svg PUBLIC "-//W3C//DTD SVG 20010904//EN"
 "http://www.w3.org/TR/2001/REC-SVG-20010904/DTD/svg10.dtd">
<svg version="1.0" xmlns="http://www.w3.org/2000/svg"
 width="100.000000pt" height="100.000000pt" viewBox="0 0 100.000000 100.000000"
 preserveAspectRatio="xMidYMid meet">

<g transform="translate(0.000000,100.000000) scale(0.100000,-0.100000)"
fill="#7a0000" stroke="none">
<path d="M626 875 c-47 -16 -103 -69 -122 -112 -8 -18 -14 -53 -14 -78 0 -45
0 -45 -34 -45 -48 0 -161 36 -223 72 -29 16 -77 52 -107 79 -30 27 -56 49 -59
49 -8 0 -27 -61 -27 -89 0 -47 21 -101 52 -136 32 -37 24 -44 -26 -25 -23 8
-26 7 -26 -13 1 -58 64 -141 129 -170 25 -11 24 -12 -16 -15 l-43 -3 14 -27
c24 -45 72 -83 127 -102 l53 -17 -66 -32 c-39 -19 -98 -38 -144 -45 l-79 -13
55 -25 c175 -79 385 -69 545 27 100 61 188 161 234 268 24 56 51 175 51 226 0
31 5 44 23 55 12 9 34 31 49 50 l27 34 -46 -14 c-59 -18 -73 -18 -46 1 20 14
63 74 63 88 0 3 -19 -2 -42 -13 -62 -27 -80 -27 -113 -3 -31 22 -96 43 -130
43 -11 -1 -37 -7 -59 -15z"/>
</g>
</svg>
